<svg width="50" height="55" viewBox="0 0 50 55" fill="none" xmlns="http://www.w3.org/2000/svg">
<path d="M48.6111 11C41.3611 12.925 32.8611 13.75 25 13.75C17.1389 13.75 8.63889 12.925 1.38889 11L0 16.5C5.16667 17.875 11.1111 18.7825 16.6667 19.25V55H22.2222V38.5H27.7778V55H33.3333V19.25C38.8889 18.7825 44.8333 17.875 50 16.5L48.6111 11ZM25 11C28.0556 11 30.5556 8.525 30.5556 5.5C30.5556 2.475 28.0556 0 25 0C21.9444 0 19.4444 2.475 19.4444 5.5C19.4444 8.525 21.9444 11 25 11Z" fill="black"/>
</svg>
